# xmcd
#
# Track frame offsets: 
#        150
#        9024
#        23289
#        42459
#        57618
#        71668
#        83370
#        94643
#        107608
#        119585
#        134065
#        145248
#        157962
#        170055
#        182032
#        196940
#        201699
#        213442
#        228187
#        238149
#        248916
#        260702
#        270838
#        287289
#        294340
#        307120
#        319267
#        329226
#        341032
#
# Disc length: 4633 seconds
#
# Revision: 1
# Processed by: cddbd v1.5.2PL0 Copyright (c) Steve Scherf et al.
# Submitted via: ExactAudioCopy v1.3
#
DISCID=b312171d
DTITLE=Various Artist - Louisiana Hayride CD 20 (Dec 1960 - 1965:  la
DTITLE=ter shows highlights)
DYEAR=2017
DGENRE=Country
TTITLE0=Marty Robbins - I Can't Quit
TTITLE1=Nat Stuckey - I Ain't Gonna Let It Happen No More
TTITLE2=Tex Ritter - I Dreamed Of A Hillbilly Heaven
TTITLE3=Tex Ritter - Teneha, Timpson, Bobo, And Blair
TTITLE4=Don Gibson - Oh Lonesome Me
TTITLE5=Don Gibson - I Can't Stop Loving You
TTITLE6=Claude King - I've Got The World By The Tail
TTITLE7=Louvin Brothers - I Don't Believe You've Met My Baby
TTITLE8=Louvin Brothers - I Can't Keep You In Love With Me
TTITLE9=Rusty and Doug Kershaw - Louisiana Man
TTITLE10=Rusty and Doug Kershaw - Big Mamou
TTITLE11=Merle Kilgore - I'll Take Ginger And Run Away
TTITLE12=Merle Kilgore - You're The Reason
TTITLE13=Bob Shelton - Country Boy
TTITLE14=George McCormick - White Lightning
TTITLE15=Frank Page - introduction and theme
TTITLE16=Johnny Western - Lonesome Number One
TTITLE17=Hawkshaw Hawkins - Pan American
TTITLE18=Hawkshaw Hawkins - Twenty Miles From Shore
TTITLE19=Jean Shepard - The Biggest Cry
TTITLE20=Stonewall Jackson - Life To Go
TTITLE21=Johnny Cash - Five Feet High And Rising
TTITLE22=Johnny Cash - (donut ad) Give My Love To Rose
TTITLE23=Johnny Cash - The Rebel Johnny Yuma
TTITLE24=Jimmy Newman - Alligator Man
TTITLE25=Roy Acuff - Freight Train Blues
TTITLE26=Sonny James - The Minute You're Gone
TTITLE27=Hank Snow - I'm Here To Get My Baby Out Of Jail
TTITLE28=Loretta Lynn - Mind Your Own Business
EXTD=
EXTT0=
EXTT1=
EXTT2=
EXTT3=
EXTT4=
EXTT5=
EXTT6=
EXTT7=
EXTT8=
EXTT9=
EXTT10=
EXTT11=
EXTT12=
EXTT13=
EXTT14=
EXTT15=
EXTT16=
EXTT17=
EXTT18=
EXTT19=
EXTT20=
EXTT21=
EXTT22=
EXTT23=
EXTT24=
EXTT25=
EXTT26=
EXTT27=
EXTT28=
PLAYORDER=
